<svg width="20" height="20" viewBox="0 0 20 20" fill="none" xmlns="http://www.w3.org/2000/svg">
<circle cx="10" cy="10" r="10" fill="#53B970"/>
<path d="M14.8333 10.6667H10.6667V14.8333C10.6667 15.0543 10.5789 15.2663 10.4226 15.4226C10.2663 15.5789 10.0543 15.6667 9.83333 15.6667C9.61232 15.6667 9.40036 15.5789 9.24408 15.4226C9.0878 15.2663 9 15.0543 9 14.8333V10.6667H4.83333C4.61232 10.6667 4.40036 10.5789 4.24408 10.4226C4.0878 10.2663 4 10.0543 4 9.83333C4 9.61232 4.0878 9.40036 4.24408 9.24408C4.40036 9.0878 4.61232 9 4.83333 9H9V4.83333C9 4.61232 9.0878 4.40036 9.24408 4.24408C9.40036 4.0878 9.61232 4 9.83333 4C10.0543 4 10.2663 4.0878 10.4226 4.24408C10.5789 4.40036 10.6667 4.61232 10.6667 4.83333V9H14.8333C15.0543 9 15.2663 9.0878 15.4226 9.24408C15.5789 9.40036 15.6667 9.61232 15.6667 9.83333C15.6667 10.0543 15.5789 10.2663 15.4226 10.4226C15.2663 10.5789 15.0543 10.6667 14.8333 10.6667Z" fill="white"/>
</svg>
