<svg width="10" height="10" viewBox="0 0 10 10" fill="none" xmlns="http://www.w3.org/2000/svg">
<path d="M10 5C10.0004 5.13058 9.9608 5.25903 9.88513 5.37284C9.80946 5.48665 9.70027 5.58196 9.56818 5.64949L1.38182 9.88678C1.2438 9.95829 1.08572 9.99733 0.923908 9.99987C0.762096 10.0024 0.602417 9.96834 0.461364 9.90121C0.321653 9.83511 0.205271 9.73873 0.124184 9.62196C0.0430974 9.50519 0.000233442 9.37225 0 9.23682V0.763184C0.000233442 0.627751 0.0430974 0.494814 0.124184 0.378045C0.205271 0.261275 0.321653 0.164887 0.461364 0.0987929C0.602417 0.031656 0.762096 -0.0024035 0.923908 0.000131891C1.08572 0.00266729 1.2438 0.0417057 1.38182 0.113215L9.56818 4.35051C9.70027 4.41804 9.80946 4.51335 9.88513 4.62716C9.9608 4.74097 10.0004 4.86942 10 5Z" fill="white"/>
</svg>
