<svg width="12" height="12" viewBox="0 0 12 12" fill="none" xmlns="http://www.w3.org/2000/svg">
<path d="M6 11C8.76139 11 11 8.55236 11 6.88236C11 5.21236 8.76139 2.76471 6 2.76471C3.23861 2.76471 1 5.21412 1 6.88236C1 8.55059 3.23861 11 6 11Z" stroke="white" stroke-width="1.66667" stroke-linejoin="round"/>
<path d="M6.00004 8.64706C6.44207 8.64706 6.86599 8.46113 7.17855 8.13019C7.49111 7.79924 7.66671 7.35038 7.66671 6.88235C7.66671 6.41432 7.49111 5.96546 7.17855 5.63452C6.86599 5.30357 6.44207 5.11765 6.00004 5.11765C5.55801 5.11765 5.13409 5.30357 4.82153 5.63452C4.50897 5.96546 4.33337 6.41432 4.33337 6.88235C4.33337 7.35038 4.50897 7.79924 4.82153 8.13019C5.13409 8.46113 5.55801 8.64706 6.00004 8.64706Z" stroke="white" stroke-width="1.66667" stroke-linejoin="round"/>
<path d="M3.0177 2.25471L3.73826 3.31941M9.22909 2.38529L8.50826 3.45M6.00242 1V2.76471" stroke="white" stroke-width="1.66667" stroke-linecap="round"/>
</svg>
